<svg viewBox="0 0 582 192" xmlns="http://www.w3.org/2000/svg"><g fill="#fff"><path d="m140 73a70 70 0 1 1 -19.64-48.62l-.72.73a66.47 66.47 0 0 0 -112.64 46.36v1.53s0 1 0 1.54a59.46 59.46 0 0 0 59.48 58 52.55 52.55 0 0 0 51.72-61.57l18.67-18.66a70.21 70.21 0 0 1 3.13 20.69zm-30.77-37.48a54.26 54.26 0 1 0 -46.79 91.21 55.37 55.37 0 0 0 7.56.53c.71 0 1.41 0 2.11-.05l-9.88-9.88a44.6 44.6 0 0 1 -39.46-43.18c0-.38 0-.76 0-1.15s0-.77 0-1.15v-.07c0-1.07.08-2.12.17-3.18a50.75 50.75 0 0 1 85.56-32.35zm-37.48 81.89 30.37-30.36a13.83 13.83 0 0 0 4.22-10v-29.2l-28 28a21.55 21.55 0 0 0 -6.56 15.18 22.25 22.25 0 0 0 -6.58-15.14l-28-28v29.19a13.82 13.82 0 0 0 4.21 10zm-16.06-70.36a7 7 0 0 0 0 9.89l16.06 16.06 16.06-16.06a7.42 7.42 0 0 0 .74-.87 7 7 0 0 0 -.74-9l-19.18-19.2a13.92 13.92 0 0 1 -4.07 10.31z"/><path d="m226.35 34.91c-1.18-5.16-2.15-7.85-3.44-9.57-1.72-2.58-3.55-3.34-11.61-3.34h-7.64v52.9c0 8.49.86 9.56 11.08 10.21v3h-30.86v-3c9.78-.65 10.64-1.72 10.64-10.21v-52.9h-6.66c-8.93 0-11.08.86-12.47 3.33-1.29 1.83-2.16 4.84-3.45 9.57h-3.11c.53-6.45 1.07-13.44 1.29-19.35h2.15c1.5 2.47 2.9 2.68 5.91 2.68h42.47c2.9 0 3.76-.64 5.48-2.68h2.26c0 4.94.54 12.79 1.08 19z"/><path d="m275.15 88.13v-3c6.78-.86 7.74-1.72 6.35-5.91s-3.55-10-5.92-16.56h-22.9c-1.68 4.83-3.33 9.34-4.68 13.86-2.37 6.77-1.4 7.85 6.67 8.6v3h-23.38v-3c6.77-1 8.27-1.61 12-11.07l22.29-56.45 3.34-1c6.66 18.49 13.87 38.92 20.75 57.63 3.44 9.25 4.84 10.21 11.82 10.86v3zm-10.53-57.52h-.22c-3.4 9.25-6.88 18.6-10.11 27.39h19.79z"/><path d="m364.27 71.25c-.64 3.33-2.9 13.55-3.87 16.88h-48.7v-3c9-.65 9.89-1.4 9.89-10.54v-43c0-9.14-.75-9.68-9.46-10.33v-3h28.06v3c-8.49.65-9.46 1.19-9.46 10.33v42.46c0 5.8.54 8 2.47 9 2.15 1.18 5.81 1.39 10.32 1.39 5.92 0 9.57-.53 12.05-3.33a31.43 31.43 0 0 0 5.48-10.53z"/><path d="m408.78 50.5c10.64 1.61 19 6.34 19 17.09 0 7.21-4 12.69-10.32 16.24-5.49 3-12.58 4.3-21.08 4.3h-23.73v-3c9.25-.65 9.89-1.29 9.89-10.32v-43.34c0-8.92-.43-9.57-9-10.22v-3h27.63c8.07 0 12.8 1.29 16.13 3.66 3.87 2.58 6 7.31 6 12.26 0 10.21-8.49 14.4-14.51 16zm-12.15-1.29c11.83 0 16.77-4.73 16.77-13.76 0-7.31-4.09-13.77-14.3-13.77a13.79 13.79 0 0 0 -6.1 1.08c-1 .65-1.4 1.83-1.4 5.38v21.07zm-5.06 25.48c0 7.74 2.05 9.78 8.93 9.78 8.81-.1 16.66-4.62 16.66-15.8s-7.52-15.91-20.64-15.91h-4.95z"/><path d="m509.62 52.33c0 23.22-16.24 37.41-35.91 37.41-19.46 0-34.94-15.16-34.94-35.8 0-19.35 13.54-37.31 36.12-37.31 18.28 0 34.73 14.19 34.73 35.7zm-59.89-1.4c0 20.21 11.08 34.94 26.24 34.94 11.93 0 22.68-10 22.68-30.64 0-22.69-11.82-34.73-25.91-34.73-12.04 0-23.01 10.32-23.01 30.43z"/><path d="m576.59 34.91c-1.18-5.16-2.15-7.85-3.44-9.57-1.72-2.58-3.55-3.34-11.61-3.34h-7.63v52.9c0 8.49.86 9.56 11.07 10.21v3h-30.86v-3c9.79-.65 10.65-1.72 10.65-10.21v-52.9h-6.67c-8.92 0-11.07.86-12.47 3.33-1.29 1.83-2.15 4.84-3.44 9.57h-3.12c.54-6.45 1.08-13.44 1.29-19.35h2.15c1.51 2.47 2.9 2.68 5.91 2.68h42.47c2.91 0 3.77-.64 5.49-2.68h2.25c0 4.94.54 12.79 1.08 19z"/><path d="m167.92 125.13 2.18-2.58a9.51 9.51 0 0 0 6.49 2.67c2.23 0 3.64-1.06 3.64-2.58v-.06c0-1.47-.82-2.27-4.64-3.15-4.38-1.06-6.85-2.35-6.85-6.14v-.06c0-3.53 2.94-6 7-6a11.4 11.4 0 0 1 7.46 2.59l-1.94 2.73a9.33 9.33 0 0 0 -5.58-2.11c-2.12 0-3.35 1.09-3.35 2.44v.12c0 1.58.94 2.29 4.91 3.23 4.35 1.06 6.58 2.61 6.58 6v.06c0 3.85-3 6.15-7.35 6.15a12.66 12.66 0 0 1 -8.55-3.31z"/><path d="m189.38 117.9v-.06a10.41 10.41 0 0 1 10.62-10.63 10.72 10.72 0 0 1 8 3.2l-2.32 2.67a8.22 8.22 0 0 0 -5.76-2.55c-3.91 0-6.79 3.23-6.79 7.26 0 4 2.85 7.29 6.79 7.29 2.53 0 4.14-1 5.91-2.64l2.32 2.35a10.64 10.64 0 0 1 -8.35 3.64 10.35 10.35 0 0 1 -10.42-10.53z"/><path d="m214.3 107.56h3.61v8.55h9.82v-8.55h3.61v20.57h-3.61v-8.67h-9.82v8.67h-3.61z"/><path d="m238.23 117.9v-.06a10.76 10.76 0 0 1 21.51 0 10.76 10.76 0 0 1 -21.51.06zm17.72 0v-.06a7 7 0 0 0 -7-7.31 7 7 0 0 0 -6.93 7.26 7 7 0 0 0 7 7.29 6.92 6.92 0 0 0 6.98-7.18z"/><path d="m265.54 117.9v-.06a10.76 10.76 0 0 1 21.51 0 10.76 10.76 0 0 1 -21.51.06zm17.72 0v-.06a7 7 0 0 0 -7-7.31 7 7 0 0 0 -6.93 7.26 7 7 0 0 0 7 7.29 6.92 6.92 0 0 0 6.93-7.18z"/><path d="m294 107.56h3.61v17.28h10.82v3.29h-14.43z"/><path d="m329.55 117.9v-.06a10.76 10.76 0 0 1 21.51 0 10.76 10.76 0 0 1 -21.51.06zm17.72 0v-.06a7 7 0 0 0 -7-7.31 7 7 0 0 0 -6.94 7.26 7 7 0 0 0 7 7.29 6.92 6.92 0 0 0 6.94-7.18z"/><path d="m358 107.56h15.31v3.29h-11.73v5.61h10.42v3.3h-10.42v8.37h-3.58z"/><path d="m400.62 110.91h-6.53v-3.35h16.69v3.35h-6.52v17.22h-3.64z"/><path d="m416.74 107.56h3.62v8.55h9.81v-8.55h3.62v20.57h-3.62v-8.67h-9.81v8.67h-3.62z"/><path d="m441.72 107.56h15.28v3.23h-11.67v5.35h10.32v3.23h-10.32v5.53h11.79v3.23h-15.4z"/><path d="m462.58 117.9v-.06a10.76 10.76 0 0 1 21.52 0 10.76 10.76 0 0 1 -21.52.06zm17.72 0v-.06a7 7 0 0 0 -7-7.31 7 7 0 0 0 -6.94 7.26 7 7 0 0 0 7 7.29 6.92 6.92 0 0 0 6.94-7.18z"/><path d="m491 107.56h3.62v17.28h10.81v3.29h-14.43z"/><path d="m509.83 117.9v-.06a10.76 10.76 0 0 1 21.52 0 10.76 10.76 0 0 1 -21.52.06zm17.72 0v-.06a7 7 0 0 0 -7-7.31 7 7 0 0 0 -6.94 7.26 7 7 0 0 0 7 7.29 6.92 6.92 0 0 0 6.94-7.18z"/><path d="m537.14 117.9v-.06a10.48 10.48 0 0 1 10.61-10.63 11.13 11.13 0 0 1 7.91 2.79l-2.3 2.73a8 8 0 0 0 -5.76-2.2c-3.79 0-6.67 3.32-6.67 7.26 0 4.24 2.8 7.35 7 7.35a8.37 8.37 0 0 0 5-1.55v-3.86h-5.26v-3.14h8.76v8.64a13.14 13.14 0 0 1 -8.58 3.2 10.2 10.2 0 0 1 -10.71-10.53z"/><path d="m568.92 120-8.17-12.46h4.25l5.73 9.08 5.82-9.08h4.14l-8.17 12.37v8.2h-3.64z"/></g><path d="m167.64 148h413.36" fill="none" stroke="#fff" stroke-miterlimit="10" stroke-width="2"/><path d="m169.67 168.46h9.56a7.38 7.38 0 0 1 5.37 1.83 4.7 4.7 0 0 1 1.41 3.49v.06a4.78 4.78 0 0 1 -2.7 4.44c2.38.91 3.85 2.29 3.85 5.05v.06c0 3.76-3.06 5.65-7.7 5.65h-9.79zm11.85 6.09c0-1.36-1.06-2.12-3-2.12h-4.47v4.35h4.18c2 0 3.26-.65 3.26-2.17zm-2.21 6h-5.23v4.53h5.38c2 0 3.2-.71 3.2-2.24v-.05c0-1.4-1.02-2.25-3.35-2.25z" fill="#fff"/><path d="m198.69 168.46h4.53v20.54h-4.53z" fill="#fff"/><path d="m214.79 178.81v-.06a10.93 10.93 0 0 1 21.86-.06v.06a10.93 10.93 0 0 1 -21.86.06zm17.13 0v-.06a6.25 6.25 0 0 0 -6.23-6.47 6.15 6.15 0 0 0 -6.17 6.41v.06a6.25 6.25 0 0 0 6.23 6.47 6.15 6.15 0 0 0 6.17-6.41z" fill="#fff"/><path d="m248.14 168.46h4.53v16.46h10.26v4.08h-14.79z" fill="#fff"/><path d="m281.43 168.32h4.18l8.81 20.68h-4.73l-1.88-4.62h-8.7l-1.88 4.62h-4.61zm4.77 12.11-2.74-6.68-2.73 6.68z" fill="#fff"/><path d="m327.73 180.22v-11.76h4.53v11.64c0 3.35 1.68 5.09 4.44 5.09s4.44-1.68 4.44-4.94v-11.79h4.52v11.61c0 6.23-3.5 9.29-9 9.29s-8.93-3.09-8.93-9.14z" fill="#fff"/><path d="m358 168.46h4.17l9.64 12.67v-12.67h4.47v20.54h-3.85l-10-13.08v13.08h-4.43z" fill="#fff"/><path d="m389 168.46h4.53v20.54h-4.53z" fill="#fff"/><path d="m404 168.46h5l5.37 14.54 5.37-14.49h4.88l-8.31 20.72h-4z" fill="#fff"/><path d="m435.09 168.46h15.52v4h-11v4.17h9.7v4h-9.7v4.37h11.17v4h-15.69z" fill="#fff"/><path d="m462.55 168.46h9.45a8.21 8.21 0 0 1 6 2.09 6.48 6.48 0 0 1 1.76 4.7v.06a6.39 6.39 0 0 1 -4.41 6.38l5 7.35h-5.35l-4.41-6.59h-3.56v6.55h-4.52zm9.11 10c2.2 0 3.47-1.18 3.47-2.91v-.06c0-1.94-1.35-2.94-3.56-2.94h-4.5v5.91z" fill="#fff"/><path d="m489.76 186 2.68-3.21a9.42 9.42 0 0 0 6.14 2.5c1.85 0 3-.73 3-1.94v-.06c0-1.14-.71-1.73-4.14-2.61-4.15-1.06-6.82-2.21-6.82-6.29v-.06c0-3.73 3-6.2 7.2-6.2a11.9 11.9 0 0 1 7.64 2.62l-2.35 3.4a9.68 9.68 0 0 0 -5.35-2c-1.73 0-2.65.79-2.65 1.79v.06c0 1.35.89 1.79 4.44 2.7 4.17 1.09 6.53 2.59 6.53 6.17v.13c0 4.09-3.12 6.38-7.56 6.38a13.13 13.13 0 0 1 -8.76-3.38z" fill="#fff"/><path d="m517.62 168.46h4.52v20.54h-4.52z" fill="#fff"/><path d="m539.06 172.64h-6.26v-4.18h17.05v4.18h-6.26v16.36h-4.53z" fill="#fff"/><path d="m567.3 180.92-7.9-12.46h5.29l4.91 8.26 5-8.26h5.14l-7.9 12.38v8.16h-4.54z" fill="#fff"/></svg>