<?xml version="1.0" encoding="UTF-8"?>
<!-- Generated by Pixelmator Pro 3.7.1 -->
<svg width="1000" height="333" viewBox="0 0 1000 333" xmlns="http://www.w3.org/2000/svg">
    <g id="logo-black-">
        <g id="g1">
            <path id="path1" fill="#a12d26" stroke="none" d="M 241.487732 127.552109 C 241.487442 184.630356 200.993835 233.701889 144.907806 244.590912 C 88.821785 255.47995 32.877998 225.131638 11.478228 172.208206 C -9.921541 119.28476 9.226295 58.633606 57.147072 27.551208 C 105.067856 -3.531189 168.317642 3.675201 208.001938 44.738922 L 206.774353 45.98233 C 174.385818 14.721008 126.54187 5.584778 84.895271 22.708405 C 43.248665 39.832031 15.703367 79.965698 14.72555 124.946091 L 14.72555 127.552109 C 14.72555 127.552109 14.72555 129.255371 14.72555 130.175156 C 16.077127 185.148453 61.092785 229.000107 116.137695 228.965027 C 142.575043 228.93988 167.651688 217.251801 184.656204 197.029022 C 201.660751 176.806259 208.857071 150.113419 204.319199 124.094467 L 236.151138 92.311371 C 239.682159 103.726013 241.480957 115.604843 241.487732 127.552109 Z M 189.025543 63.713409 C 161.025513 34.428925 117.202599 26.766296 80.910614 44.80899 C 44.618629 62.851715 24.312134 102.39653 30.812727 142.369553 C 37.313316 182.342575 69.106621 213.431656 109.249573 219.069 C 113.520439 219.663651 117.82708 219.965286 122.139214 219.971741 C 123.349754 219.971741 124.543243 219.971741 125.736725 219.886566 L 108.891533 203.058243 C 71.25692 198.708435 42.568249 167.346603 41.613068 129.51088 C 41.613068 128.863617 41.613068 128.216385 41.613068 127.552109 C 41.613068 126.887817 41.613068 126.240585 41.613068 125.593323 L 41.613068 125.474106 C 41.613068 123.651596 41.749466 121.863174 41.902912 120.057709 C 44.785389 86.961975 66.398422 58.444672 97.503357 46.695709 C 128.608292 34.946777 163.701019 42.045258 187.780884 64.956787 Z M 125.122925 203.194504 L 176.903137 151.483109 C 181.524597 147.022202 184.123337 140.870209 184.098145 134.450378 L 184.098145 84.714783 L 136.358734 132.406433 C 129.337036 139.196167 125.312119 148.50061 125.17408 158.262131 C 124.882919 148.54715 120.866615 139.315262 113.955307 132.474564 L 66.215912 84.782913 L 66.215912 134.501465 C 66.18428 140.919174 68.777016 147.071548 73.393867 151.534195 Z M 97.740967 83.352158 C 93.090904 88.00647 93.090904 95.543213 97.740967 100.197525 L 125.122925 127.552109 L 152.504883 100.197525 C 152.962921 99.73671 153.384735 99.241287 153.766586 98.715683 C 157.142548 93.981735 156.609558 87.505692 152.504883 83.386246 L 119.803383 50.68335 C 120.023537 57.244232 117.510956 63.6026 112.86412 68.24411 Z"/>
            <path id="path2" fill="#000000" stroke="none" d="M 388.712646 62.674408 C 386.700775 53.885529 385.046936 49.30368 382.847504 46.374084 C 379.914948 41.979614 376.794861 40.68515 363.052704 40.68515 L 350.026672 40.68515 L 350.026672 130.78833 C 350.026672 145.249115 351.492981 147.071609 368.917847 148.178757 L 368.917847 153.288574 L 316.302216 153.288574 L 316.302216 148.178757 C 332.976898 147.071609 334.443176 145.249115 334.443176 130.78833 L 334.443176 40.68515 L 323.088013 40.68515 C 307.862549 40.68515 304.196838 42.149963 301.826935 46.357025 C 299.627502 49.47403 298.144165 54.600891 295.944763 62.657379 L 290.642273 62.657379 C 291.545898 51.671234 292.466583 39.76535 292.841675 29.699036 L 296.507416 29.699036 C 299.06488 33.906128 301.451843 34.263794 306.583801 34.263794 L 378.994232 34.263794 C 383.938721 34.263794 385.404999 33.173676 388.337585 29.699036 L 392.190796 29.699036 C 392.190796 38.11322 393.11145 51.483887 394.032196 62.061249 Z"/>
            <path id="path3" fill="#000000" stroke="none" d="M 471.915619 153.322632 L 471.915619 148.212799 C 483.475372 146.748001 485.112183 145.283188 482.742218 138.146469 C 480.372284 131.009766 476.689575 121.113739 472.648743 109.940262 L 433.604736 109.940262 C 430.740356 118.167068 427.927185 125.848831 425.625427 133.547623 C 421.584656 145.078796 423.238464 146.918335 436.99765 148.195786 L 436.99765 153.305603 L 397.135254 153.305603 L 397.135254 148.195786 C 408.677917 146.492508 411.235413 145.453506 417.595001 129.340546 L 455.598969 33.190765 L 461.29361 31.487488 C 472.648743 62.980988 484.94165 97.778885 496.671936 129.647141 C 502.536987 145.40242 504.924011 147.037567 516.824707 148.144669 L 516.824707 153.254501 Z M 453.962158 55.350342 L 453.587097 55.350342 C 447.790131 71.105621 441.856812 87.031204 436.349731 102.002991 L 470.091248 102.002991 Z"/>
            <path id="path4" fill="#000000" stroke="none" d="M 623.863281 124.571381 C 622.772156 130.243286 618.918884 147.650742 617.265015 153.322632 L 534.232605 153.322632 L 534.232605 148.212799 C 549.577393 147.105698 551.094788 145.828247 551.094788 130.2603 L 551.094788 57.019531 C 551.094788 41.451599 549.816101 40.53186 534.965698 39.424713 L 534.965698 34.31488 L 582.807434 34.31488 L 582.807434 39.424713 C 568.332153 40.53186 566.678345 41.451599 566.678345 57.019531 L 566.678345 129.340546 C 566.678345 139.219528 567.598999 142.966736 570.889648 144.670013 C 574.555359 146.679871 580.795593 147.037567 588.484985 147.037567 C 598.578491 147.037567 604.801636 146.134827 609.030029 141.365662 C 613.256592 136.034317 616.427551 129.947281 618.373291 123.430191 Z"/>
            <path id="path5" fill="#000000" stroke="none" d="M 699.751892 89.228455 C 717.892944 91.970718 732.146545 100.027191 732.146545 118.337387 C 732.146545 130.617996 725.326599 139.951935 714.551147 145.998581 C 705.190857 151.108398 693.102539 153.322632 678.610168 153.322632 L 638.151062 153.322632 L 638.151062 148.212799 C 653.922119 147.105698 655.013306 146.015594 655.013306 130.635025 L 655.013306 56.815155 C 655.013306 41.621948 654.280151 40.514801 639.668457 39.407684 L 639.668457 34.297852 L 686.7771 34.297852 C 700.536194 34.297852 708.600769 36.495117 714.27832 40.53186 C 720.876648 44.9263 724.508179 52.982788 724.508179 61.413971 C 724.508179 78.804413 710.032959 85.941147 699.768982 88.666367 Z M 679.036438 87.031204 C 699.20636 87.031204 707.628906 78.974747 707.628906 63.594177 C 707.628906 51.14325 700.655579 40.140076 683.247742 40.140076 C 679.686157 39.957336 676.129639 40.586395 672.847351 41.979614 C 671.142395 43.086761 670.460388 45.096619 670.460388 51.14325 L 670.460388 87.031204 Z M 670.409241 130.430649 C 670.409241 143.613983 673.90448 147.088654 685.634705 147.088654 C 700.655579 146.918335 714.039673 139.219528 714.039673 120.176926 C 714.039673 101.134338 701.218262 93.077835 678.848877 93.077835 L 670.409241 93.077835 Z"/>
            <path id="path6" fill="#000000" stroke="none" d="M 871.682007 92.345428 C 871.682007 131.895447 843.993103 156.064911 810.456177 156.064911 C 777.277283 156.064911 750.884216 130.243286 750.884216 95.087708 C 750.884216 62.129333 773.969666 31.538574 812.46814 31.538574 C 843.635132 31.538574 871.682007 55.708038 871.682007 92.345428 Z M 769.570862 89.960831 C 769.570862 124.384003 788.461975 149.473251 814.309448 149.473251 C 834.649841 149.473251 852.978333 132.440506 852.978333 97.284927 C 852.978333 58.637665 832.8255 38.130219 808.802368 38.130219 C 788.274475 38.130219 769.570862 55.708038 769.570862 89.960831 Z"/>
            <path id="path7" fill="#000000" stroke="none" d="M 985.864441 62.674408 C 983.852478 53.885529 982.19873 49.30368 979.99939 46.374084 C 977.066711 41.979614 973.946533 40.68515 960.204468 40.68515 L 947.195435 40.68515 L 947.195435 130.78833 C 947.195435 145.249115 948.661804 147.071609 966.069519 148.178757 L 966.069519 153.288574 L 913.453918 153.288574 L 913.453918 148.178757 C 930.145691 147.071609 931.612061 145.249115 931.612061 130.78833 L 931.612061 40.68515 L 920.239746 40.68515 C 905.031311 40.68515 901.365723 42.149963 898.978699 46.357025 C 896.779297 49.47403 895.312927 54.600891 893.113525 62.657379 L 887.794067 62.657379 C 888.714661 51.671234 889.635437 39.76535 889.993469 29.699036 L 893.65918 29.699036 C 896.233704 33.906128 898.603577 34.263794 903.735535 34.263794 L 976.146118 34.263794 C 981.107483 34.263794 982.573792 33.173676 985.506348 29.699036 L 989.34259 29.699036 C 989.34259 38.11322 990.263184 51.483887 991.18396 62.061249 Z"/>
            <path id="path8" fill="#000000" stroke="none" d="M 289.090729 216.34375 L 292.807587 211.949326 C 295.780762 214.819061 299.738983 216.445862 303.872894 216.49707 C 307.675018 216.49707 310.07901 214.69162 310.07901 212.102631 L 310.07901 212.000412 C 310.07901 209.496613 308.680969 208.133972 302.167908 206.635117 C 294.700134 204.829651 290.488831 202.632416 290.488831 196.176987 L 290.488831 196.074814 C 290.488831 190.062271 295.501465 185.855179 302.423676 185.855179 C 307.054108 185.764908 311.564606 187.329315 315.142792 190.266647 L 311.835144 194.91658 C 309.143066 192.71077 305.800873 191.448242 302.32135 191.322693 C 298.706818 191.322693 296.60968 193.179245 296.60968 195.478668 L 296.60968 195.68306 C 296.60968 198.374222 298.212402 199.583542 304.98114 201.184647 C 312.397797 202.990097 316.199921 205.630188 316.199921 211.404297 L 316.199921 211.50647 C 316.199921 218.064087 311.084991 221.981628 303.668304 221.981628 C 298.274689 221.987823 293.074158 219.976532 289.090729 216.34375 Z"/>
            <path id="path9" fill="#000000" stroke="none" d="M 325.679596 204.029099 L 325.679596 203.926895 C 325.576385 199.097061 327.450317 194.434235 330.868134 191.016632 C 334.28598 187.599014 338.95166 185.722565 343.786438 185.821091 C 348.895996 185.652283 353.842804 187.629013 357.42627 191.271576 L 353.470703 195.819321 C 350.904388 193.126205 347.371063 191.563538 343.650055 191.475967 C 336.983582 191.475967 332.073242 196.977554 332.073242 203.841736 C 332.073242 210.654831 336.932434 216.258606 343.650055 216.258606 C 347.963654 216.258606 350.708679 214.555328 353.726501 211.761978 L 357.682037 215.764648 C 354.10672 219.858704 348.881348 222.134308 343.445465 221.964569 C 338.690979 221.997406 334.12442 220.112213 330.780121 216.735992 C 327.435822 213.359756 325.596802 208.778198 325.679596 204.029099 Z"/>
            <path id="path10" fill="#000000" stroke="none" d="M 368.167664 186.417236 L 374.322632 186.417236 L 374.322632 200.980225 L 391.065521 200.980225 L 391.065521 186.417236 L 397.22049 186.417236 L 397.22049 221.453613 L 391.065521 221.453613 L 391.065521 206.686203 L 374.322632 206.686203 L 374.322632 221.453613 L 368.167664 221.453613 Z"/>
            <path id="path11" fill="#000000" stroke="none" d="M 408.967804 204.029099 L 408.967804 203.926895 C 409.269958 194.027191 417.390625 186.158325 427.30484 186.158325 C 437.219116 186.158325 445.339661 194.027191 445.641876 203.926895 C 445.36853 213.828369 437.269592 221.721222 427.354462 221.74884 C 417.439362 221.776474 409.296387 213.928894 408.967804 204.029099 Z M 439.180023 204.029099 L 439.180023 203.926895 C 439.324371 200.674301 438.130951 197.504196 435.876892 195.152664 C 433.622833 192.801147 430.504242 191.472778 427.245148 191.475967 C 424.022278 191.505951 420.948547 192.836838 418.723114 195.165878 C 416.497711 197.494949 415.309814 200.624161 415.429688 203.841736 C 415.294891 207.088562 416.492584 210.249695 418.745544 212.593689 C 420.998566 214.937683 424.111633 216.261414 427.364532 216.258606 C 430.589722 216.288818 433.686707 214.998688 435.934906 212.688354 C 438.183136 210.378021 439.386627 207.248932 439.265259 204.029099 Z"/>
            <path id="path12" fill="#000000" stroke="none" d="M 455.530762 204.029099 L 455.530762 203.926895 C 455.832977 194.027191 463.953583 186.158325 473.867828 186.158325 C 483.782013 186.158325 491.902618 194.027191 492.204834 203.926895 C 491.931549 213.828369 483.83255 221.721222 473.917419 221.74884 C 464.00235 221.776474 455.859375 213.928894 455.530762 204.029099 Z M 485.742981 204.029099 L 485.742981 203.926895 C 485.88736 200.674301 484.693909 197.504196 482.43988 195.152664 C 480.185791 192.801147 477.06723 191.472778 473.808167 191.475967 C 470.585266 191.505951 467.511536 192.836838 465.286072 195.165878 C 463.060669 197.494949 461.872772 200.624161 461.992615 203.841736 C 461.857849 207.088562 463.055511 210.249695 465.308563 212.593689 C 467.561523 214.937683 470.674591 216.261414 473.92749 216.258606 C 477.137939 216.265503 480.212524 214.965134 482.442108 212.657455 C 484.671661 210.349762 485.863617 207.234055 485.742981 204.029099 Z"/>
            <path id="path13" fill="#000000" stroke="none" d="M 504.054474 186.417236 L 510.209412 186.417236 L 510.209412 215.849823 L 528.657288 215.849823 L 528.657288 221.453613 L 504.054474 221.453613 Z"/>
            <path id="path14" fill="#000000" stroke="none" d="M 564.666443 204.029099 L 564.666443 203.926895 C 564.968628 194.027191 573.089233 186.158325 583.003479 186.158325 C 592.917786 186.158325 601.038391 194.027191 601.340515 203.926895 C 601.0672 213.828369 592.968262 221.721222 583.053101 221.74884 C 573.138 221.776474 564.995056 213.928894 564.666443 204.029099 Z M 594.878662 204.029099 L 594.878662 203.926895 C 595.02301 200.674301 593.82959 197.504196 591.575562 195.152664 C 589.321533 192.801147 586.202881 191.472778 582.943787 191.475967 C 579.717957 191.501358 576.639832 192.830261 574.410706 195.159821 C 572.181519 197.489395 570.991394 200.621246 571.111267 203.841736 C 570.976501 207.088562 572.174133 210.249695 574.427185 212.593689 C 576.680176 214.937683 579.793274 216.261414 583.046082 216.258606 C 586.259521 216.270142 589.338623 214.971802 591.571899 212.663605 C 593.805176 210.355377 594.999451 207.23703 594.878662 204.029099 Z"/>
            <path id="path15" fill="#000000" stroke="none" d="M 613.173096 186.417236 L 639.276306 186.417236 L 639.276306 192.021011 L 619.276917 192.021011 L 619.276917 201.576385 L 637.042786 201.576385 L 637.042786 207.197205 L 619.276917 207.197205 L 619.276917 221.453613 L 613.173096 221.453613 Z"/>
            <path id="path16" fill="#000000" stroke="none" d="M 685.839294 192.12323 L 674.705811 192.12323 L 674.705811 186.417236 L 703.161865 186.417236 L 703.161865 192.12323 L 692.04541 192.12323 L 692.04541 221.453613 L 685.839294 221.453613 Z"/>
            <path id="path17" fill="#000000" stroke="none" d="M 713.323547 186.417236 L 719.495544 186.417236 L 719.495544 200.980225 L 736.221497 200.980225 L 736.221497 186.417236 L 742.393494 186.417236 L 742.393494 221.453613 L 736.221497 221.453613 L 736.221497 206.686203 L 719.495544 206.686203 L 719.495544 221.453613 L 713.323547 221.453613 Z"/>
            <path id="path18" fill="#000000" stroke="none" d="M 755.91394 186.417236 L 781.966003 186.417236 L 781.966003 191.918839 L 762.068848 191.918839 L 762.068848 201.031342 L 779.664246 201.031342 L 779.664246 206.532928 L 762.068848 206.532928 L 762.068848 215.952026 L 782.170593 215.952026 L 782.170593 221.453613 L 755.91394 221.453613 Z"/>
            <path id="path19" fill="#000000" stroke="none" d="M 791.479736 204.029099 L 791.479736 203.926895 C 791.479736 193.805054 799.693359 185.59967 809.825378 185.59967 C 819.957397 185.59967 828.170959 193.805054 828.170959 203.926895 C 828.199158 214.048767 820.008484 222.277008 809.876526 222.305252 C 799.744568 222.33345 791.507996 214.15094 791.479736 204.029099 Z M 821.691956 204.029099 L 821.691956 203.926895 C 821.836365 200.674301 820.642944 197.504196 818.388855 195.152664 C 816.134827 192.801147 813.016174 191.472778 809.757141 191.475967 C 806.531372 191.501358 803.453125 192.830261 801.223999 195.159821 C 798.994873 197.489395 797.804688 200.621246 797.924561 203.841736 C 797.789856 207.088562 798.987488 210.249695 801.24054 212.593689 C 803.49353 214.937683 806.606567 216.261414 809.859497 216.258606 C 813.072876 216.270142 816.151917 214.971802 818.385254 212.663605 C 820.61853 210.355377 821.812805 207.23703 821.691956 204.029099 Z"/>
            <path id="path20" fill="#000000" stroke="none" d="M 839.935303 186.417236 L 846.1073 186.417236 L 846.1073 215.849823 L 864.538147 215.849823 L 864.538147 221.453613 L 839.935303 221.453613 Z"/>
            <path id="path21" fill="#000000" stroke="none" d="M 872.040039 204.029099 L 872.040039 203.926895 C 872.040039 193.805054 880.253601 185.59967 890.385681 185.59967 C 900.517639 185.59967 908.73114 193.805054 908.73114 203.926895 C 908.75946 214.048767 900.568726 222.277008 890.436707 222.305252 C 880.30481 222.33345 872.068298 214.15094 872.040039 204.029099 Z M 902.252197 204.029099 L 902.252197 203.926895 C 902.396545 200.674301 901.203186 197.504196 898.949158 195.152664 C 896.695007 192.801147 893.576477 191.472778 890.317383 191.475967 C 887.091492 191.501358 884.013428 192.830261 881.784302 195.159821 C 879.555115 197.489395 878.36499 200.621246 878.484863 203.841736 C 878.350037 207.088562 879.547729 210.249695 881.800659 212.593689 C 884.053833 214.937683 887.16687 216.261414 890.419678 216.258606 C 893.633118 216.270142 896.712219 214.971802 898.945557 212.663605 C 901.178833 210.355377 902.373108 207.23703 902.252197 204.029099 Z"/>
            <path id="path22" fill="#000000" stroke="none" d="M 918.603027 204.029099 L 918.603027 203.926895 C 918.533569 199.109955 920.416077 194.469482 923.822754 191.05983 C 927.22937 187.650192 931.870972 185.760834 936.69281 185.821091 C 941.636597 185.58757 946.476074 187.292847 950.179199 190.573242 L 946.25769 195.223175 C 943.616882 192.713409 940.080322 191.363998 936.437073 191.475967 C 929.97522 191.475967 925.064819 197.130844 925.064819 203.841736 C 925.064819 211.063614 929.838806 216.360809 936.999695 216.360809 C 940.050842 216.413971 943.038574 215.488663 945.524597 213.720734 L 945.524597 207.146118 L 936.556396 207.146118 L 936.556396 201.797791 L 951.492065 201.797791 L 951.492065 216.514099 C 947.427734 220.024475 942.235962 221.958893 936.863281 221.964569 C 932.002869 222.210419 927.26178 220.410461 923.791443 217.001892 C 920.321228 213.593353 918.439331 208.888153 918.603027 204.029099 Z"/>
            <path id="path23" fill="#000000" stroke="none" d="M 972.787231 207.605988 L 958.857544 186.383194 L 966.103699 186.383194 L 975.87323 201.848892 L 985.796204 186.383194 L 992.854797 186.383194 L 978.925171 207.452667 L 978.925171 221.419525 L 972.719055 221.419525 Z"/>
        </g>
        <path id="path24" fill="#a12d26" stroke="#000000" stroke-width="4.359161" d="M 288.613342 255.297653 L 993.383362 255.297653"/>
        <path id="path25" fill="#000000" stroke="none" d="M 292.074432 290.146637 L 308.374054 290.146637 C 311.719757 289.925415 315.015503 291.047424 317.529785 293.263611 C 319.125061 294.824005 319.996368 296.978516 319.933777 299.208038 L 319.933777 299.310242 C 320.02475 302.516968 318.222229 305.478088 315.330353 306.872772 C 319.388214 308.42276 321.894531 310.773285 321.894531 315.474304 L 321.894531 315.576508 C 321.894531 321.980804 316.677307 325.199982 308.766205 325.199982 L 292.074432 325.199982 Z M 312.278442 300.519562 C 312.278442 298.203094 310.471161 296.9086 307.163513 296.9086 L 299.542267 296.9086 L 299.542267 304.317871 L 306.669067 304.317871 C 310.07901 304.317871 312.227325 303.210754 312.227325 300.621765 Z M 308.510437 310.739227 L 299.593414 310.739227 L 299.593414 318.455048 L 308.766205 318.455048 C 312.176147 318.455048 314.222137 317.245697 314.222137 314.639709 L 314.222137 314.554535 C 314.222137 312.169952 312.483032 310.722168 308.510437 310.722168 Z"/>
        <path id="path26" fill="#000000" stroke="none" d="M 341.552948 290.146637 L 349.276489 290.146637 L 349.276489 325.131866 L 341.552948 325.131866 Z"/>
        <path id="path27" fill="#000000" stroke="none" d="M 369.003082 307.775513 L 369.003082 307.673309 C 368.974854 297.391571 377.295288 289.03363 387.587341 289.005402 C 397.879395 288.977203 406.245667 297.289368 406.273895 307.571136 L 406.273895 307.673309 C 406.302185 317.955078 397.98172 326.312988 387.689667 326.341217 C 377.397614 326.369415 369.031342 318.057251 369.003082 307.775513 Z M 398.209381 307.775513 L 398.209381 307.673309 C 398.310974 304.791504 397.238037 301.991821 395.235901 299.914673 C 393.233795 297.837494 390.473816 296.660583 387.587341 296.653137 C 384.721954 296.641266 381.976532 297.801392 379.989319 299.86377 C 378.002197 301.926147 376.946472 304.711121 377.067657 307.571136 L 377.067657 307.673309 C 376.966064 310.555115 378.039001 313.354828 380.041107 315.431976 C 382.043243 317.509155 384.803192 318.686066 387.689667 318.693512 C 390.555054 318.705383 393.300507 317.545227 395.287659 315.482849 C 397.274811 313.420502 398.330505 310.635529 398.209381 307.775513 Z"/>
        <path id="path28" fill="#000000" stroke="none" d="M 425.864105 290.146637 L 433.587677 290.146637 L 433.587677 318.182495 L 451.08075 318.182495 L 451.08075 325.131866 L 425.864105 325.131866 Z"/>
        <path id="path29" fill="#000000" stroke="none" d="M 482.622864 289.908173 L 489.749664 289.908173 L 504.770569 325.131866 L 496.706024 325.131866 L 493.500641 317.262756 L 478.667328 317.262756 L 475.462006 325.131866 L 467.60199 325.131866 Z M 490.755646 310.53479 L 486.083984 299.156952 L 481.429413 310.53479 Z"/>
        <path id="path30" fill="#000000" stroke="none" d="M 561.563416 310.177124 L 561.563416 290.146637 L 569.286987 290.146637 L 569.286987 309.972748 C 569.286987 315.67868 572.151306 318.642395 576.857056 318.642395 C 581.562744 318.642395 584.427185 315.780884 584.427185 310.22821 L 584.427185 290.146637 L 592.133667 290.146637 L 592.133667 309.921631 C 592.133667 320.533051 586.16626 325.745056 576.788879 325.745056 C 567.411438 325.745056 561.563416 320.481934 561.563416 310.177124 Z"/>
        <path id="path31" fill="#000000" stroke="none" d="M 613.173096 290.146637 L 620.282898 290.146637 L 636.718872 311.727112 L 636.718872 290.146637 L 644.340149 290.146637 L 644.340149 325.131866 L 637.77594 325.131866 L 620.726135 302.853027 L 620.726135 325.131866 L 613.173096 325.131866 Z"/>
        <path id="path32" fill="#000000" stroke="none" d="M 666.027466 290.146637 L 673.750977 290.146637 L 673.750977 325.131866 L 666.027466 325.131866 Z"/>
        <path id="path33" fill="#000000" stroke="none" d="M 691.602112 290.146637 L 700.127014 290.146637 L 709.282776 314.912231 L 718.438477 290.231781 L 726.758728 290.231781 L 712.590454 325.523621 L 705.770508 325.523621 Z"/>
        <path id="path34" fill="#000000" stroke="none" d="M 744.609924 290.146637 L 771.071228 290.146637 L 771.071228 296.959717 L 752.316345 296.959717 L 752.316345 304.062378 L 768.854675 304.062378 L 768.854675 310.875488 L 752.316345 310.875488 L 752.316345 318.318756 L 771.361023 318.318756 L 771.361023 325.131866 L 744.609924 325.131866 Z"/>
        <path id="path35" fill="#000000" stroke="none" d="M 791.42865 290.146637 L 807.54071 290.146637 C 811.290649 289.913574 814.97699 291.196411 817.770569 293.706482 C 819.80658 295.863953 820.888 298.749054 820.771362 301.711853 L 820.771362 301.814056 C 821.003662 306.715424 817.924133 311.165985 813.252319 312.680939 L 821.777283 325.199982 L 812.65564 325.199982 L 805.136719 313.975403 L 799.066956 313.975403 L 799.066956 325.131866 L 791.360474 325.131866 Z M 806.960999 307.179352 C 810.711914 307.179352 812.877319 305.169495 812.877319 302.222839 L 812.877319 302.120667 C 812.877319 298.816284 810.5755 297.113037 806.807556 297.113037 L 799.135193 297.113037 L 799.135193 307.179352 Z"/>
        <path id="path36" fill="#000000" stroke="none" d="M 837.821106 320.022034 L 842.390442 314.554535 C 845.24823 317.194244 848.968323 318.707397 852.859009 318.812714 C 856.013245 318.812714 857.973877 317.569336 857.973877 315.508392 L 857.973877 315.406158 C 857.973877 313.464447 856.763428 312.459503 850.915344 310.960602 C 843.839661 309.155151 839.287415 307.196381 839.287415 300.24704 L 839.287415 300.144836 C 839.287415 293.791656 844.402283 289.584564 851.563232 289.584564 C 856.293213 289.509552 860.900818 291.088043 864.589294 294.047119 L 860.582581 299.838257 C 857.954224 297.812073 854.775208 296.624847 851.460938 296.431702 C 848.511353 296.431702 846.942749 297.777313 846.942749 299.480591 L 846.942749 299.582764 C 846.942749 301.882202 848.460205 302.631592 854.512878 304.18161 C 861.62262 306.038147 865.646362 308.593079 865.646362 314.690796 L 865.646362 314.912231 C 865.646362 321.878601 860.326782 325.779114 852.756653 325.779114 C 847.238098 325.764832 841.919128 323.7146 837.821106 320.022034 Z"/>
        <path id="path37" fill="#000000" stroke="none" d="M 885.321838 290.146637 L 893.02832 290.146637 L 893.02832 325.131866 L 885.321838 325.131866 Z"/>
        <path id="path38" fill="#000000" stroke="none" d="M 921.876526 297.266296 L 911.203369 297.266296 L 911.203369 290.146637 L 940.273315 290.146637 L 940.273315 297.266296 L 929.600159 297.266296 L 929.600159 325.131866 L 921.876526 325.131866 Z"/>
        <path id="path39" fill="#000000" stroke="none" d="M 970.025146 311.369415 L 956.555847 290.146637 L 965.575134 290.146637 L 973.946533 304.215668 L 982.471436 290.146637 L 991.235107 290.146637 L 977.765808 311.233154 L 977.765808 325.131866 L 970.025146 325.131866 Z"/>
    </g>
</svg>
