<?xml version="1.0" encoding="UTF-8"?>
<!-- Generated by Pixelmator Pro 3.6.17 -->
<svg width="1000" height="400" viewBox="0 0 1000 400" xmlns="http://www.w3.org/2000/svg">
    <g id="logo-white-">
        <g id="g1">
            <path id="path1" fill="#ffffff" stroke="none" d="M 266.876373 164.345108 C 266.876129 216.254608 230.086258 260.882446 179.130127 270.785431 C 128.173996 280.688416 77.347107 253.088287 57.904667 204.957352 C 38.462223 156.826416 55.858707 101.667542 99.396416 73.399811 C 142.934128 45.132111 200.398788 51.685944 236.453369 89.031128 L 235.338074 90.161896 C 205.911926 61.731476 162.444031 53.422577 124.606628 68.995575 C 86.769226 84.568542 61.743351 121.067902 60.854973 161.975082 L 60.854973 164.345108 C 60.854973 164.345108 60.854973 165.894135 60.854973 166.730621 C 62.082928 216.725784 102.981239 256.606445 152.99147 256.574524 C 177.010727 256.551636 199.793747 245.922028 215.242966 227.530533 C 230.692169 209.139038 237.230286 184.863373 233.107452 161.200577 L 262.027893 132.295593 C 265.235962 142.676605 266.870239 153.479721 266.876373 164.345108 Z M 219.212646 106.287354 C 193.773636 79.654724 153.958984 72.685974 120.986427 89.094818 C 88.013885 105.503693 69.56472 141.467499 75.470734 177.820755 C 81.376755 214.174011 110.262085 242.4478 146.733368 247.574661 C 150.613602 248.115448 154.526337 248.389771 158.444061 248.395645 C 159.543869 248.395645 160.628204 248.395645 161.712524 248.318192 L 146.408081 233.013748 C 112.215714 229.057846 86.151047 200.535995 85.283226 166.126495 C 85.283226 165.537857 85.283226 164.949234 85.283226 164.345108 C 85.283226 163.740982 85.283226 163.152359 85.283226 162.563721 L 85.283226 162.455292 C 85.283226 160.797821 85.40715 159.171341 85.546562 157.529358 C 88.16539 127.430634 107.801598 101.495728 136.061523 90.810699 C 164.321442 80.125702 196.204422 86.58136 218.081833 107.418152 Z M 161.154877 233.13768 L 208.199005 186.109024 C 212.397766 182.052063 214.75882 176.457169 214.735916 170.618698 L 214.735916 125.386932 L 171.362991 168.759857 C 164.983536 174.934738 161.326752 183.396606 161.20134 192.27417 C 160.936813 183.438934 157.287872 175.04303 151.008698 168.821808 L 107.635773 125.448883 L 107.635773 170.665161 C 107.607033 176.501724 109.962631 182.096954 114.157204 186.155502 Z M 136.27739 124.147705 C 132.052643 128.380554 132.052643 135.234802 136.27739 139.467651 L 161.154877 164.345108 L 186.032333 139.467651 C 186.448486 139.048553 186.831726 138.597992 187.178635 138.119995 C 190.245834 133.814728 189.761581 127.92511 186.032333 124.17868 L 156.321884 94.437225 C 156.521896 100.403961 154.239136 106.186584 150.017319 110.407776 Z"/>
            <path id="path2" fill="#ffffff" stroke="none" d="M 400.635406 105.342438 C 398.807526 97.349426 397.304962 93.182526 395.306732 90.518188 C 392.642395 86.521667 389.807648 85.344421 377.322449 85.344421 L 365.487854 85.344421 L 365.487854 167.288269 C 365.487854 180.43956 366.820007 182.097031 382.651123 183.103897 L 382.651123 187.751007 L 334.847961 187.751007 L 334.847961 183.103897 C 349.997498 182.097031 351.329681 180.43956 351.329681 167.288269 L 351.329681 85.344421 L 341.013123 85.344421 C 327.180237 85.344421 323.849823 86.676575 321.696655 90.502686 C 319.698425 93.337433 318.350739 98 316.352509 105.326935 L 311.535004 105.326935 C 312.355988 95.335663 313.192474 84.507935 313.533264 75.353149 L 316.863708 75.353149 C 319.187256 79.17926 321.355865 79.504547 326.018463 79.504547 L 391.805908 79.504547 C 396.298126 79.504547 397.63028 78.513184 400.294617 75.353149 L 403.795441 75.353149 C 403.795441 83.005371 404.631897 95.165283 405.468384 104.78479 Z"/>
            <path id="path3" fill="#ffffff" stroke="none" d="M 476.22821 187.781982 L 476.22821 183.134872 C 486.730652 181.802704 488.217773 180.470551 486.064575 173.980103 C 483.911407 167.489639 480.565521 158.489761 476.894287 148.32811 L 441.421448 148.32811 C 438.819061 155.809937 436.263184 162.796082 434.171967 169.797699 C 430.500763 180.284668 432.003326 181.957626 444.504028 183.1194 L 444.504028 187.766495 L 408.287628 187.766495 L 408.287628 183.1194 C 418.774567 181.570358 421.098114 180.625443 426.876007 165.971603 L 461.403961 78.528687 L 466.577759 76.979645 C 476.894287 105.621246 488.062836 137.268005 498.720215 166.250427 C 504.048828 180.578979 506.217529 182.066055 517.029724 183.072906 L 517.029724 187.720016 Z M 459.916901 98.68158 L 459.576111 98.68158 C 454.309387 113.010162 448.918762 127.493591 443.915375 141.109619 L 474.57074 141.109619 Z"/>
            <path id="path4" fill="#ffffff" stroke="none" d="M 614.278015 161.634293 C 613.286682 166.792587 609.785828 182.623703 608.283264 187.781982 L 532.845398 187.781982 L 532.845398 183.134872 C 546.786682 182.128021 548.165344 180.966232 548.165344 166.80806 L 548.165344 100.199646 C 548.165344 86.041473 547.00354 85.205017 533.511475 84.19812 L 533.511475 79.551025 L 576.977356 79.551025 L 576.977356 84.19812 C 563.82605 85.205017 562.323486 86.041473 562.323486 100.199646 L 562.323486 165.971603 C 562.323486 174.955978 563.159973 178.363861 566.149597 179.912903 C 569.480042 181.740753 575.149475 182.066055 582.13562 182.066055 C 591.305908 182.066055 596.959839 181.245071 600.801453 176.907761 C 604.641418 172.059219 607.5224 166.523392 609.290161 160.596451 Z"/>
            <path id="path5" fill="#ffffff" stroke="none" d="M 683.225525 129.491852 C 699.707275 131.985809 712.657166 139.312714 712.657166 155.964828 C 712.657166 167.133377 706.460999 175.62207 696.671143 181.12114 C 688.166931 185.768234 677.184326 187.781982 664.017517 187.781982 L 627.258972 187.781982 L 627.258972 183.134872 C 641.587524 182.128021 642.578918 181.136627 642.578918 167.148849 L 642.578918 100.013763 C 642.578918 86.196381 641.912781 85.189514 628.637634 84.182648 L 628.637634 79.535553 L 671.437378 79.535553 C 683.938049 79.535553 691.265015 81.533813 696.423279 85.205017 C 702.418091 89.201508 705.717468 96.528442 705.717468 104.196136 C 705.717468 120.01178 692.566223 126.502228 683.241028 128.980682 Z M 664.404785 127.493591 C 682.729797 127.493591 690.38208 120.166687 690.38208 106.178894 C 690.38208 94.855469 684.046509 84.848724 668.230896 84.848724 C 664.995056 84.682526 661.763855 85.254608 658.781799 86.521667 C 657.232727 87.528564 656.613159 89.356415 656.613159 94.855469 L 656.613159 127.493591 Z M 656.56665 166.962982 C 656.56665 178.952484 659.742188 182.112518 670.399536 182.112518 C 684.046509 181.957626 696.206421 174.955978 696.206421 157.637787 C 696.206421 140.319611 684.557739 132.992676 664.234375 132.992676 L 656.56665 132.992676 Z"/>
            <path id="path6" fill="#ffffff" stroke="none" d="M 839.430054 132.326599 C 839.430054 168.295151 814.273743 190.275925 783.80426 190.275925 C 753.660095 190.275925 729.68103 166.792587 729.68103 134.820526 C 729.68103 104.846741 750.654968 77.026123 785.632141 77.026123 C 813.948486 77.026123 839.430054 99.006897 839.430054 132.326599 Z M 746.658447 130.157928 C 746.658447 161.463898 763.821716 184.281174 787.305054 184.281174 C 805.785034 184.281174 822.437134 168.790833 822.437134 136.818787 C 822.437134 101.671234 804.127563 83.020874 782.301697 83.020874 C 763.651367 83.020874 746.658447 99.006897 746.658447 130.157928 Z"/>
            <path id="path7" fill="#ffffff" stroke="none" d="M 943.168823 105.342438 C 941.340881 97.349426 939.838379 93.182526 937.840149 90.518188 C 935.175781 86.521667 932.341003 85.344421 919.855774 85.344421 L 908.036682 85.344421 L 908.036682 167.288269 C 908.036682 180.43956 909.368896 182.097031 925.184509 183.103897 L 925.184509 187.751007 L 877.381348 187.751007 L 877.381348 183.103897 C 892.546326 182.097031 893.878601 180.43956 893.878601 167.288269 L 893.878601 85.344421 L 883.546448 85.344421 C 869.729126 85.344421 866.398743 86.676575 864.230042 90.502686 C 862.231873 93.337433 860.899597 98 858.901367 105.326935 L 854.06842 105.326935 C 854.904846 95.335663 855.741394 84.507935 856.06665 75.353149 L 859.397095 75.353149 C 861.736145 79.17926 863.889221 79.504547 868.551819 79.504547 L 934.339294 79.504547 C 938.846985 79.504547 940.179138 78.513184 942.843506 75.353149 L 946.328796 75.353149 C 946.328796 83.005371 947.165283 95.165283 948.001831 104.78479 Z"/>
            <path id="path8" fill="#ffffff" stroke="none" d="M 310.125397 245.096207 L 313.502289 241.099701 C 316.203522 243.709579 319.799713 245.189041 323.555511 245.235626 C 327.009857 245.235626 329.19397 243.593658 329.19397 241.23912 L 329.19397 241.146179 C 329.19397 238.869095 327.923798 237.629868 322.00647 236.266724 C 315.22171 234.624741 311.395599 232.626495 311.395599 226.755661 L 311.395599 226.66272 C 311.395599 221.194626 315.949738 217.368515 322.238831 217.368515 C 326.44574 217.286407 330.543701 218.709167 333.794617 221.380508 L 330.78949 225.609375 C 328.343628 223.603302 325.307159 222.455093 322.145874 222.340912 C 318.861938 222.340912 316.956635 224.029358 316.956635 226.120544 L 316.956635 226.306442 C 316.956635 228.753906 318.41272 229.853729 324.562378 231.309814 C 331.300659 232.951782 334.755035 235.352783 334.755035 240.604019 L 334.755035 240.69696 C 334.755035 246.660736 330.107941 250.223511 323.369629 250.223511 C 318.46933 250.229156 313.744476 248.399994 310.125397 245.096207 Z"/>
            <path id="path9" fill="#ffffff" stroke="none" d="M 343.367645 233.896698 L 343.367645 233.803757 C 343.273895 229.41127 344.97644 225.1707 348.081635 222.062576 C 351.186859 218.954453 355.425781 217.24791 359.81839 217.337524 C 364.460571 217.184006 368.954926 218.981735 372.210632 222.294449 L 368.616882 226.430359 C 366.285278 223.981125 363.075104 222.559967 359.694458 222.480316 C 353.637726 222.480316 349.176514 227.483704 349.176514 233.726303 C 349.176514 239.92244 353.591248 245.018753 359.694458 245.018753 C 363.613495 245.018753 366.107452 243.469727 368.849243 240.929306 L 372.442993 244.569534 C 369.194702 248.292847 364.447266 250.362381 359.508575 250.208008 C 355.188965 250.237885 351.04007 248.523407 348.001648 245.452911 C 344.963257 242.382416 343.292419 238.215744 343.367645 233.896698 Z"/>
            <path id="path10" fill="#ffffff" stroke="none" d="M 381.969543 217.879684 L 387.561554 217.879684 L 387.561554 231.123932 L 402.773071 231.123932 L 402.773071 217.879684 L 408.365082 217.879684 L 408.365082 249.743317 L 402.773071 249.743317 L 402.773071 236.313187 L 387.561554 236.313187 L 387.561554 249.743317 L 381.969543 249.743317 Z"/>
            <path id="path11" fill="#ffffff" stroke="none" d="M 419.037903 233.896698 L 419.037903 233.803757 C 419.312469 224.800507 426.690338 217.644226 435.697784 217.644226 C 444.7052 217.644226 452.083038 224.800507 452.357605 233.803757 C 452.109283 242.808594 444.751099 249.986694 435.742859 250.011826 C 426.734619 250.036957 419.336456 242.900024 419.037903 233.896698 Z M 446.486786 233.896698 L 446.486786 233.803757 C 446.61795 230.845688 445.533661 227.962662 443.485779 225.824081 C 441.437897 223.685501 438.604523 222.477417 435.643555 222.480316 C 432.715454 222.507584 429.922852 223.717941 427.90097 225.83609 C 425.879089 227.954239 424.799866 230.800095 424.908752 233.726303 C 424.786316 236.679123 425.874451 239.553986 427.921356 241.685699 C 429.968292 243.817429 432.796631 245.021286 435.751984 245.018753 C 438.68219 245.046234 441.495911 243.872925 443.538483 241.771805 C 445.581085 239.670685 446.674469 236.824966 446.56424 233.896698 Z"/>
            <path id="path12" fill="#ffffff" stroke="none" d="M 461.342041 233.896698 L 461.342041 233.803757 C 461.616577 224.800507 468.994446 217.644226 478.001892 217.644226 C 487.009277 217.644226 494.387146 224.800507 494.661713 233.803757 C 494.413361 242.808594 487.055176 249.986694 478.046936 250.011826 C 469.038727 250.036957 461.640564 242.900024 461.342041 233.896698 Z M 488.790894 233.896698 L 488.790894 233.803757 C 488.922028 230.845688 487.837738 227.962662 485.789886 225.824081 C 483.741974 223.685501 480.90863 222.477417 477.947662 222.480316 C 475.019531 222.507584 472.226959 223.717941 470.205048 225.83609 C 468.183197 227.954239 467.103973 230.800095 467.21283 233.726303 C 467.090393 236.679123 468.178528 239.553986 470.225464 241.685699 C 472.272369 243.817429 475.100708 245.021286 478.056061 245.018753 C 480.97287 245.02504 483.766266 243.842407 485.791901 241.743698 C 487.817535 239.644989 488.900482 236.811447 488.790894 233.896698 Z"/>
            <path id="path13" fill="#ffffff" stroke="none" d="M 505.42749 217.879684 L 511.01947 217.879684 L 511.01947 244.646988 L 527.780029 244.646988 L 527.780029 249.743317 L 505.42749 249.743317 Z"/>
            <path id="path14" fill="#ffffff" stroke="none" d="M 560.495605 233.896698 L 560.495605 233.803757 C 560.770142 224.800507 568.14801 217.644226 577.155457 217.644226 C 586.162903 217.644226 593.540771 224.800507 593.815308 233.803757 C 593.567017 242.808594 586.208801 249.986694 577.200562 250.011826 C 568.192322 250.036957 560.794189 242.900024 560.495605 233.896698 Z M 587.944458 233.896698 L 587.944458 233.803757 C 588.075623 230.845688 586.991394 227.962662 584.943481 225.824081 C 582.89563 223.685501 580.062195 222.477417 577.101257 222.480316 C 574.170471 222.503418 571.37384 223.71196 569.348633 225.830582 C 567.323364 227.949203 566.242065 230.79744 566.350952 233.726303 C 566.228516 236.679123 567.31665 239.553986 569.363586 241.685699 C 571.410522 243.817429 574.238831 245.021286 577.194214 245.018753 C 580.113708 245.029251 582.911133 243.84848 584.940125 241.749298 C 586.969177 239.650116 588.054199 236.814133 587.944458 233.896698 Z"/>
            <path id="path15" fill="#ffffff" stroke="none" d="M 604.565613 217.879684 L 628.281311 217.879684 L 628.281311 222.976013 L 610.111145 222.976013 L 610.111145 231.666092 L 626.252075 231.666092 L 626.252075 236.777908 L 610.111145 236.777908 L 610.111145 249.743317 L 604.565613 249.743317 Z"/>
            <path id="path16" fill="#ffffff" stroke="none" d="M 670.585388 223.068954 L 660.470215 223.068954 L 660.470215 217.879684 L 686.323608 217.879684 L 686.323608 223.068954 L 676.223938 223.068954 L 676.223938 249.743317 L 670.585388 249.743317 Z"/>
            <path id="path17" fill="#ffffff" stroke="none" d="M 695.555786 217.879684 L 701.16333 217.879684 L 701.16333 231.123932 L 716.359375 231.123932 L 716.359375 217.879684 L 721.966858 217.879684 L 721.966858 249.743317 L 716.359375 249.743317 L 716.359375 236.313187 L 701.16333 236.313187 L 701.16333 249.743317 L 695.555786 249.743317 Z"/>
            <path id="path18" fill="#ffffff" stroke="none" d="M 734.250671 217.879684 L 757.919922 217.879684 L 757.919922 222.883072 L 739.842651 222.883072 L 739.842651 231.170395 L 755.828674 231.170395 L 755.828674 236.173782 L 739.842651 236.173782 L 739.842651 244.739929 L 758.105774 244.739929 L 758.105774 249.743317 L 734.250671 249.743317 Z"/>
            <path id="path19" fill="#ffffff" stroke="none" d="M 766.563477 233.896698 L 766.563477 233.803757 C 766.563477 224.598495 774.025879 217.136169 783.231079 217.136169 C 792.436401 217.136169 799.898743 224.598495 799.898743 233.803757 C 799.924377 243.009018 792.482849 250.492157 783.277588 250.517838 C 774.072327 250.543503 766.589172 243.101959 766.563477 233.896698 Z M 794.01239 233.896698 L 794.01239 233.803757 C 794.143494 230.845688 793.059265 227.962662 791.011414 225.824081 C 788.963501 223.685501 786.130127 222.477417 783.169128 222.480316 C 780.238342 222.503418 777.441711 223.71196 775.416504 225.830582 C 773.391235 227.949203 772.309937 230.79744 772.418823 233.726303 C 772.296387 236.679123 773.384521 239.553986 775.431458 241.685699 C 777.478394 243.817429 780.306702 245.021286 783.262085 245.018753 C 786.18158 245.029251 788.979065 243.84848 791.008057 241.749298 C 793.037048 239.650116 794.12207 236.814133 794.01239 233.896698 Z"/>
            <path id="path20" fill="#ffffff" stroke="none" d="M 810.587036 217.879684 L 816.194519 217.879684 L 816.194519 244.646988 L 832.939575 244.646988 L 832.939575 249.743317 L 810.587036 249.743317 Z"/>
            <path id="path21" fill="#ffffff" stroke="none" d="M 839.75531 233.896698 L 839.75531 233.803757 C 839.75531 224.598495 847.217651 217.136169 856.422974 217.136169 C 865.628174 217.136169 873.090515 224.598495 873.090515 233.803757 C 873.116211 243.009018 865.674622 250.492157 856.469421 250.517838 C 847.26416 250.543503 839.781006 243.101959 839.75531 233.896698 Z M 867.204163 233.896698 L 867.204163 233.803757 C 867.335327 230.845688 866.251038 227.962662 864.203186 225.824081 C 862.155273 223.685501 859.321899 222.477417 856.360962 222.480316 C 853.430115 222.503418 850.633545 223.71196 848.608337 225.830582 C 846.583069 227.949203 845.501709 230.79744 845.610657 233.726303 C 845.48822 236.679123 846.576355 239.553986 848.62323 241.685699 C 850.670227 243.817429 853.498596 245.021286 856.453857 245.018753 C 859.373352 245.029251 862.170837 243.84848 864.19989 241.749298 C 866.228943 239.650116 867.313965 236.814133 867.204163 233.896698 Z"/>
            <path id="path22" fill="#ffffff" stroke="none" d="M 882.059448 233.896698 L 882.059448 233.803757 C 881.996399 229.423004 883.706726 225.202759 886.801758 222.101868 C 889.89679 219.000977 894.113831 217.28273 898.49469 217.337524 C 902.986267 217.125153 907.383057 218.675995 910.747498 221.659332 L 907.184753 225.888199 C 904.785461 223.605698 901.572327 222.378479 898.262268 222.480316 C 892.391479 222.480316 887.930237 227.623108 887.930237 233.726303 C 887.930237 240.294205 892.267517 245.111694 898.773499 245.111694 C 901.545532 245.160049 904.260071 244.318527 906.518677 242.710693 L 906.518677 236.73143 L 898.370728 236.73143 L 898.370728 231.867462 L 911.940247 231.867462 L 911.940247 245.251114 C 908.247681 248.443619 903.530823 250.202835 898.649536 250.208008 C 894.233704 250.43161 889.926208 248.794632 886.773315 245.694748 C 883.620483 242.594879 881.910706 238.31572 882.059448 233.896698 Z"/>
            <path id="path23" fill="#ffffff" stroke="none" d="M 931.287659 237.149673 L 918.63208 217.848709 L 925.215515 217.848709 L 934.091431 231.91394 L 943.106812 217.848709 L 949.519836 217.848709 L 936.864258 237.010254 L 936.864258 249.712326 L 931.225769 249.712326 Z"/>
        </g>
        <path id="path24" fill="none" stroke="#ffffff" stroke-width="2.503916" d="M 309.69165 280.522583 L 950 280.522583"/>
        <path id="path25" fill="#ffffff" stroke="none" d="M 312.836212 312.21582 L 327.644958 312.21582 C 330.684662 312.014648 333.678955 313.035034 335.963287 315.050537 C 337.412628 316.469635 338.204254 318.429047 338.1474 320.456665 L 338.1474 320.549622 C 338.230042 323.465942 336.592377 326.158936 333.964996 327.427307 C 337.651703 328.836945 339.928802 330.974609 339.928802 335.249939 L 339.928802 335.342896 C 339.928802 341.167236 335.188751 344.09491 328.001251 344.09491 L 312.836212 344.09491 Z M 331.192261 321.649445 C 331.192261 319.542755 329.550293 318.365479 326.545166 318.365479 L 319.620972 318.365479 L 319.620972 325.10376 L 326.095917 325.10376 C 329.19397 325.10376 331.145782 324.096924 331.145782 321.742371 Z M 327.76889 330.943634 L 319.66745 330.943634 L 319.66745 337.960754 L 328.001251 337.960754 C 331.099304 337.960754 332.95816 336.860931 332.95816 334.490906 L 332.95816 334.413452 C 332.95816 332.244812 331.378113 330.928131 327.76889 330.928131 Z"/>
        <path id="path26" fill="#ffffff" stroke="none" d="M 357.789154 312.21582 L 364.806274 312.21582 L 364.806274 344.032959 L 357.789154 344.032959 Z"/>
        <path id="path27" fill="#ffffff" stroke="none" d="M 382.728577 328.248291 L 382.728577 328.155365 C 382.702911 318.804688 390.26236 311.203613 399.613037 311.177948 C 408.963745 311.152313 416.564789 318.711731 416.590424 328.062439 L 416.590424 328.155365 C 416.616089 337.506042 409.056671 345.107117 399.705994 345.132782 C 390.355286 345.158417 382.754242 337.598999 382.728577 328.248291 Z M 409.263519 328.248291 L 409.263519 328.155365 C 409.355835 325.534515 408.381012 322.988373 406.562012 321.099304 C 404.743011 319.210236 402.235504 318.139893 399.613037 318.133118 C 397.009705 318.122314 394.515381 319.177399 392.709961 321.053009 C 390.904572 322.92865 389.945404 325.461426 390.055511 328.062439 L 390.055511 328.155365 C 389.963196 330.776215 390.938019 333.322388 392.757019 335.211426 C 394.576019 337.100494 397.083527 338.170837 399.705994 338.177612 C 402.309326 338.188416 404.80365 337.133331 406.609039 335.257721 C 408.414459 333.382111 409.373596 330.849335 409.263519 328.248291 Z"/>
        <path id="path28" fill="#ffffff" stroke="none" d="M 434.388824 312.21582 L 441.405945 312.21582 L 441.405945 337.712891 L 457.299011 337.712891 L 457.299011 344.032959 L 434.388824 344.032959 Z"/>
        <path id="path29" fill="#ffffff" stroke="none" d="M 485.956146 311.998962 L 492.431091 311.998962 L 506.078125 344.032959 L 498.75116 344.032959 L 495.838989 336.876434 L 482.362366 336.876434 L 479.450226 344.032959 L 472.309174 344.032959 Z M 493.345062 330.757721 L 489.100677 320.410217 L 484.871857 330.757721 Z"/>
        <path id="path30" fill="#ffffff" stroke="none" d="M 557.676392 330.432434 L 557.676392 312.21582 L 564.693542 312.21582 L 564.693542 330.246582 C 564.693542 335.435822 567.295898 338.131134 571.571228 338.131134 C 575.846558 338.131134 578.448975 335.528748 578.448975 330.478912 L 578.448975 312.21582 L 585.450562 312.21582 L 585.450562 330.200104 C 585.450562 339.850586 580.028931 344.590607 571.509277 344.590607 C 562.989563 344.590607 557.676392 339.804108 557.676392 330.432434 Z"/>
        <path id="path31" fill="#ffffff" stroke="none" d="M 604.565613 312.21582 L 611.025085 312.21582 L 625.957764 331.842072 L 625.957764 312.21582 L 632.881958 312.21582 L 632.881958 344.032959 L 626.918152 344.032959 L 611.427856 323.771606 L 611.427856 344.032959 L 604.565613 344.032959 Z"/>
        <path id="path32" fill="#ffffff" stroke="none" d="M 652.585632 312.21582 L 659.602783 312.21582 L 659.602783 344.032959 L 652.585632 344.032959 Z"/>
        <path id="path33" fill="#ffffff" stroke="none" d="M 675.821167 312.21582 L 683.566284 312.21582 L 691.884644 334.73877 L 700.202942 312.293274 L 707.762207 312.293274 L 694.889771 344.389221 L 688.693604 344.389221 Z"/>
        <path id="path34" fill="#ffffff" stroke="none" d="M 723.980591 312.21582 L 748.021545 312.21582 L 748.021545 318.411957 L 730.982178 318.411957 L 730.982178 324.871429 L 746.007813 324.871429 L 746.007813 331.067566 L 730.982178 331.067566 L 730.982178 337.836823 L 748.284912 337.836823 L 748.284912 344.032959 L 723.980591 344.032959 Z"/>
        <path id="path35" fill="#ffffff" stroke="none" d="M 766.517029 312.21582 L 781.155396 312.21582 C 784.562378 312.003876 787.91156 313.170532 790.449585 315.453308 C 792.299377 317.415405 793.281921 320.039246 793.175903 322.733765 L 793.175903 322.826691 C 793.386963 327.284241 790.589172 331.331757 786.344666 332.709534 L 794.089844 344.09491 L 785.80249 344.09491 L 778.971252 333.88678 L 773.456726 333.88678 L 773.456726 344.032959 L 766.455078 344.032959 Z M 780.628723 327.706177 C 784.03656 327.706177 786.003906 325.878296 786.003906 323.198456 L 786.003906 323.10553 C 786.003906 320.100403 783.912659 318.551361 780.489319 318.551361 L 773.518677 318.551361 L 773.518677 327.706177 Z"/>
        <path id="path36" fill="#ffffff" stroke="none" d="M 808.66626 339.385864 L 812.817627 334.413452 C 815.414063 336.814117 818.793884 338.190247 822.328674 338.286041 C 825.194397 338.286041 826.975769 337.155243 826.975769 335.280945 L 826.975769 335.187958 C 826.975769 333.422058 825.875977 332.508148 820.562805 331.144989 C 814.134338 329.503021 809.998413 327.721649 809.998413 321.401581 L 809.998413 321.308655 C 809.998413 315.530762 814.645508 311.704651 821.151428 311.704651 C 825.448853 311.636414 829.634949 313.071991 832.986023 315.763092 L 829.345825 321.029816 C 826.957886 319.187103 824.069641 318.107422 821.058533 317.931732 C 818.378662 317.931732 816.953552 319.155487 816.953552 320.704529 L 816.953552 320.797455 C 816.953552 322.888672 818.332214 323.570221 823.831238 324.979858 C 830.29071 326.668274 833.946411 328.991821 833.946411 334.537384 L 833.946411 334.73877 C 833.946411 341.07431 829.113464 344.621582 822.235779 344.621582 C 817.221863 344.608582 812.389465 342.744019 808.66626 339.385864 Z"/>
        <path id="path37" fill="#ffffff" stroke="none" d="M 851.822266 312.21582 L 858.823975 312.21582 L 858.823975 344.032959 L 851.822266 344.032959 Z"/>
        <path id="path38" fill="#ffffff" stroke="none" d="M 885.033569 318.690765 L 875.336609 318.690765 L 875.336609 312.21582 L 901.74762 312.21582 L 901.74762 318.690765 L 892.05072 318.690765 L 892.05072 344.032959 L 885.033569 344.032959 Z"/>
        <path id="path39" fill="#ffffff" stroke="none" d="M 928.778259 331.516785 L 916.540955 312.21582 L 924.735291 312.21582 L 932.341003 325.010834 L 940.086182 312.21582 L 948.048218 312.21582 L 935.810913 331.392853 L 935.810913 344.032959 L 928.778259 344.032959 Z"/>
    </g>
</svg>
